<svg xmlns="http://www.w3.org/2000/svg" xmlns:xlink="http://www.w3.org/1999/xlink" width="600" height="400" viewBox="0 0 2400 1600">
<defs>
  <clipPath id="clip910">
    <rect x="0" y="0" width="2400" height="1600"></rect>
  </clipPath>
</defs>
<path clip-path="url(#clip910)" d="M0 1600 L2400 1600 L2400 0 L0 0  Z" fill="#ffffff" fill-rule="evenodd" fill-opacity="1"></path>
<defs>
  <clipPath id="clip911">
    <rect x="480" y="0" width="1681" height="1600"></rect>
  </clipPath>
</defs>
<path clip-path="url(#clip910)" d="M219.542 688.608 L2352.76 688.608 L2352.76 114.832 L219.542 114.832  Z" fill="#ffffff" fill-rule="evenodd" fill-opacity="1"></path>
<defs>
  <clipPath id="clip912">
    <rect x="219" y="114" width="2134" height="575"></rect>
  </clipPath>
</defs>
<polyline clip-path="url(#clip912)" style="stroke:#000000; stroke-linecap:round; stroke-linejoin:round; stroke-width:2; stroke-opacity:0.1; fill:none" points="279.916,688.608 279.916,114.832 "></polyline>
<polyline clip-path="url(#clip912)" style="stroke:#000000; stroke-linecap:round; stroke-linejoin:round; stroke-width:2; stroke-opacity:0.1; fill:none" points="706.055,688.608 706.055,114.832 "></polyline>
<polyline clip-path="url(#clip912)" style="stroke:#000000; stroke-linecap:round; stroke-linejoin:round; stroke-width:2; stroke-opacity:0.1; fill:none" points="1132.19,688.608 1132.19,114.832 "></polyline>
<polyline clip-path="url(#clip912)" style="stroke:#000000; stroke-linecap:round; stroke-linejoin:round; stroke-width:2; stroke-opacity:0.1; fill:none" points="1558.33,688.608 1558.33,114.832 "></polyline>
<polyline clip-path="url(#clip912)" style="stroke:#000000; stroke-linecap:round; stroke-linejoin:round; stroke-width:2; stroke-opacity:0.1; fill:none" points="1984.47,688.608 1984.47,114.832 "></polyline>
<polyline clip-path="url(#clip910)" style="stroke:#000000; stroke-linecap:round; stroke-linejoin:round; stroke-width:4; stroke-opacity:1; fill:none" points="219.542,688.608 2352.76,688.608 "></polyline>
<polyline clip-path="url(#clip910)" style="stroke:#000000; stroke-linecap:round; stroke-linejoin:round; stroke-width:4; stroke-opacity:1; fill:none" points="279.916,688.608 279.916,669.71 "></polyline>
<polyline clip-path="url(#clip910)" style="stroke:#000000; stroke-linecap:round; stroke-linejoin:round; stroke-width:4; stroke-opacity:1; fill:none" points="706.055,688.608 706.055,669.71 "></polyline>
<polyline clip-path="url(#clip910)" style="stroke:#000000; stroke-linecap:round; stroke-linejoin:round; stroke-width:4; stroke-opacity:1; fill:none" points="1132.19,688.608 1132.19,669.71 "></polyline>
<polyline clip-path="url(#clip910)" style="stroke:#000000; stroke-linecap:round; stroke-linejoin:round; stroke-width:4; stroke-opacity:1; fill:none" points="1558.33,688.608 1558.33,669.71 "></polyline>
<polyline clip-path="url(#clip910)" style="stroke:#000000; stroke-linecap:round; stroke-linejoin:round; stroke-width:4; stroke-opacity:1; fill:none" points="1984.47,688.608 1984.47,669.71 "></polyline>
<path clip-path="url(#clip910)" d="M279.916 719.527 Q276.305 719.527 274.476 723.091 Q272.671 726.633 272.671 733.763 Q272.671 740.869 274.476 744.434 Q276.305 747.975 279.916 747.975 Q283.55 747.975 285.356 744.434 Q287.185 740.869 287.185 733.763 Q287.185 726.633 285.356 723.091 Q283.55 719.527 279.916 719.527 M279.916 715.823 Q285.726 715.823 288.782 720.429 Q291.861 725.013 291.861 733.763 Q291.861 742.489 288.782 747.096 Q285.726 751.679 279.916 751.679 Q274.106 751.679 271.027 747.096 Q267.972 742.489 267.972 733.763 Q267.972 725.013 271.027 720.429 Q274.106 715.823 279.916 715.823 Z" fill="#000000" fill-rule="nonzero" fill-opacity="1"></path><path clip-path="url(#clip910)" d="M696.333 716.448 L714.689 716.448 L714.689 720.383 L700.615 720.383 L700.615 728.855 Q701.634 728.508 702.652 728.346 Q703.671 728.161 704.689 728.161 Q710.476 728.161 713.856 731.332 Q717.235 734.503 717.235 739.92 Q717.235 745.499 713.763 748.6 Q710.291 751.679 703.971 751.679 Q701.796 751.679 699.527 751.309 Q697.282 750.938 694.874 750.198 L694.874 745.499 Q696.958 746.633 699.18 747.188 Q701.402 747.744 703.879 747.744 Q707.883 747.744 710.221 745.638 Q712.559 743.531 712.559 739.92 Q712.559 736.309 710.221 734.202 Q707.883 732.096 703.879 732.096 Q702.004 732.096 700.129 732.513 Q698.277 732.929 696.333 733.809 L696.333 716.448 Z" fill="#000000" fill-rule="nonzero" fill-opacity="1"></path><path clip-path="url(#clip910)" d="M1106.88 747.073 L1114.52 747.073 L1114.52 720.707 L1106.21 722.374 L1106.21 718.115 L1114.47 716.448 L1119.15 716.448 L1119.15 747.073 L1126.79 747.073 L1126.79 751.008 L1106.88 751.008 L1106.88 747.073 Z" fill="#000000" fill-rule="nonzero" fill-opacity="1"></path><path clip-path="url(#clip910)" d="M1146.23 719.527 Q1142.62 719.527 1140.79 723.091 Q1138.99 726.633 1138.99 733.763 Q1138.99 740.869 1140.79 744.434 Q1142.62 747.975 1146.23 747.975 Q1149.87 747.975 1151.67 744.434 Q1153.5 740.869 1153.5 733.763 Q1153.5 726.633 1151.67 723.091 Q1149.87 719.527 1146.23 719.527 M1146.23 715.823 Q1152.04 715.823 1155.1 720.429 Q1158.18 725.013 1158.18 733.763 Q1158.18 742.489 1155.1 747.096 Q1152.04 751.679 1146.23 751.679 Q1140.42 751.679 1137.34 747.096 Q1134.29 742.489 1134.29 733.763 Q1134.29 725.013 1137.34 720.429 Q1140.42 715.823 1146.23 715.823 Z" fill="#000000" fill-rule="nonzero" fill-opacity="1"></path><path clip-path="url(#clip910)" d="M1533.52 747.073 L1541.16 747.073 L1541.16 720.707 L1532.85 722.374 L1532.85 718.115 L1541.11 716.448 L1545.79 716.448 L1545.79 747.073 L1553.42 747.073 L1553.42 751.008 L1533.52 751.008 L1533.52 747.073 Z" fill="#000000" fill-rule="nonzero" fill-opacity="1"></path><path clip-path="url(#clip910)" d="M1562.92 716.448 L1581.27 716.448 L1581.27 720.383 L1567.2 720.383 L1567.2 728.855 Q1568.22 728.508 1569.23 728.346 Q1570.25 728.161 1571.27 728.161 Q1577.06 728.161 1580.44 731.332 Q1583.82 734.503 1583.82 739.92 Q1583.82 745.499 1580.35 748.6 Q1576.87 751.679 1570.55 751.679 Q1568.38 751.679 1566.11 751.309 Q1563.86 750.938 1561.46 750.198 L1561.46 745.499 Q1563.54 746.633 1565.76 747.188 Q1567.98 747.744 1570.46 747.744 Q1574.47 747.744 1576.8 745.638 Q1579.14 743.531 1579.14 739.92 Q1579.14 736.309 1576.8 734.202 Q1574.47 732.096 1570.46 732.096 Q1568.59 732.096 1566.71 732.513 Q1564.86 732.929 1562.92 733.809 L1562.92 716.448 Z" fill="#000000" fill-rule="nonzero" fill-opacity="1"></path><path clip-path="url(#clip910)" d="M1963.24 747.073 L1979.56 747.073 L1979.56 751.008 L1957.62 751.008 L1957.62 747.073 Q1960.28 744.318 1964.86 739.688 Q1969.47 735.036 1970.65 733.693 Q1972.9 731.17 1973.78 729.434 Q1974.68 727.675 1974.68 725.985 Q1974.68 723.23 1972.73 721.494 Q1970.81 719.758 1967.71 719.758 Q1965.51 719.758 1963.06 720.522 Q1960.63 721.286 1957.85 722.837 L1957.85 718.115 Q1960.67 716.98 1963.13 716.402 Q1965.58 715.823 1967.62 715.823 Q1972.99 715.823 1976.18 718.508 Q1979.38 721.193 1979.38 725.684 Q1979.38 727.814 1978.57 729.735 Q1977.78 731.633 1975.67 734.226 Q1975.1 734.897 1971.99 738.114 Q1968.89 741.309 1963.24 747.073 Z" fill="#000000" fill-rule="nonzero" fill-opacity="1"></path><path clip-path="url(#clip910)" d="M1999.38 719.527 Q1995.77 719.527 1993.94 723.091 Q1992.13 726.633 1992.13 733.763 Q1992.13 740.869 1993.94 744.434 Q1995.77 747.975 1999.38 747.975 Q2003.01 747.975 2004.82 744.434 Q2006.65 740.869 2006.65 733.763 Q2006.65 726.633 2004.82 723.091 Q2003.01 719.527 1999.38 719.527 M1999.38 715.823 Q2005.19 715.823 2008.24 720.429 Q2011.32 725.013 2011.32 733.763 Q2011.32 742.489 2008.24 747.096 Q2005.19 751.679 1999.38 751.679 Q1993.57 751.679 1990.49 747.096 Q1987.43 742.489 1987.43 733.763 Q1987.43 725.013 1990.49 720.429 Q1993.57 715.823 1999.38 715.823 Z" fill="#000000" fill-rule="nonzero" fill-opacity="1"></path><polyline clip-path="url(#clip912)" style="stroke:#000000; stroke-linecap:round; stroke-linejoin:round; stroke-width:2; stroke-opacity:0.1; fill:none" points="219.542,575.029 2352.76,575.029 "></polyline>
<polyline clip-path="url(#clip912)" style="stroke:#000000; stroke-linecap:round; stroke-linejoin:round; stroke-width:2; stroke-opacity:0.1; fill:none" points="219.542,441.842 2352.76,441.842 "></polyline>
<polyline clip-path="url(#clip912)" style="stroke:#000000; stroke-linecap:round; stroke-linejoin:round; stroke-width:2; stroke-opacity:0.1; fill:none" points="219.542,308.654 2352.76,308.654 "></polyline>
<polyline clip-path="url(#clip912)" style="stroke:#000000; stroke-linecap:round; stroke-linejoin:round; stroke-width:2; stroke-opacity:0.1; fill:none" points="219.542,175.467 2352.76,175.467 "></polyline>
<polyline clip-path="url(#clip910)" style="stroke:#000000; stroke-linecap:round; stroke-linejoin:round; stroke-width:4; stroke-opacity:1; fill:none" points="219.542,688.608 219.542,114.832 "></polyline>
<polyline clip-path="url(#clip910)" style="stroke:#000000; stroke-linecap:round; stroke-linejoin:round; stroke-width:4; stroke-opacity:1; fill:none" points="219.542,575.029 238.44,575.029 "></polyline>
<polyline clip-path="url(#clip910)" style="stroke:#000000; stroke-linecap:round; stroke-linejoin:round; stroke-width:4; stroke-opacity:1; fill:none" points="219.542,441.842 238.44,441.842 "></polyline>
<polyline clip-path="url(#clip910)" style="stroke:#000000; stroke-linecap:round; stroke-linejoin:round; stroke-width:4; stroke-opacity:1; fill:none" points="219.542,308.654 238.44,308.654 "></polyline>
<polyline clip-path="url(#clip910)" style="stroke:#000000; stroke-linecap:round; stroke-linejoin:round; stroke-width:4; stroke-opacity:1; fill:none" points="219.542,175.467 238.44,175.467 "></polyline>
<path clip-path="url(#clip910)" d="M126.367 560.828 Q122.755 560.828 120.927 564.393 Q119.121 567.934 119.121 575.064 Q119.121 582.17 120.927 585.735 Q122.755 589.277 126.367 589.277 Q130.001 589.277 131.806 585.735 Q133.635 582.17 133.635 575.064 Q133.635 567.934 131.806 564.393 Q130.001 560.828 126.367 560.828 M126.367 557.124 Q132.177 557.124 135.232 561.731 Q138.311 566.314 138.311 575.064 Q138.311 583.791 135.232 588.397 Q132.177 592.98 126.367 592.98 Q120.556 592.98 117.478 588.397 Q114.422 583.791 114.422 575.064 Q114.422 566.314 117.478 561.731 Q120.556 557.124 126.367 557.124 Z" fill="#000000" fill-rule="nonzero" fill-opacity="1"></path><path clip-path="url(#clip910)" d="M146.529 586.43 L151.413 586.43 L151.413 592.309 L146.529 592.309 L146.529 586.43 Z" fill="#000000" fill-rule="nonzero" fill-opacity="1"></path><path clip-path="url(#clip910)" d="M171.598 560.828 Q167.987 560.828 166.158 564.393 Q164.352 567.934 164.352 575.064 Q164.352 582.17 166.158 585.735 Q167.987 589.277 171.598 589.277 Q175.232 589.277 177.038 585.735 Q178.866 582.17 178.866 575.064 Q178.866 567.934 177.038 564.393 Q175.232 560.828 171.598 560.828 M171.598 557.124 Q177.408 557.124 180.464 561.731 Q183.542 566.314 183.542 575.064 Q183.542 583.791 180.464 588.397 Q177.408 592.98 171.598 592.98 Q165.788 592.98 162.709 588.397 Q159.653 583.791 159.653 575.064 Q159.653 566.314 162.709 561.731 Q165.788 557.124 171.598 557.124 Z" fill="#000000" fill-rule="nonzero" fill-opacity="1"></path><path clip-path="url(#clip910)" d="M127.015 427.64 Q123.404 427.64 121.575 431.205 Q119.769 434.747 119.769 441.876 Q119.769 448.983 121.575 452.548 Q123.404 456.089 127.015 456.089 Q130.649 456.089 132.455 452.548 Q134.283 448.983 134.283 441.876 Q134.283 434.747 132.455 431.205 Q130.649 427.64 127.015 427.64 M127.015 423.937 Q132.825 423.937 135.88 428.543 Q138.959 433.127 138.959 441.876 Q138.959 450.603 135.88 455.21 Q132.825 459.793 127.015 459.793 Q121.205 459.793 118.126 455.21 Q115.07 450.603 115.07 441.876 Q115.07 433.127 118.126 428.543 Q121.205 423.937 127.015 423.937 Z" fill="#000000" fill-rule="nonzero" fill-opacity="1"></path><path clip-path="url(#clip910)" d="M147.177 453.242 L152.061 453.242 L152.061 459.122 L147.177 459.122 L147.177 453.242 Z" fill="#000000" fill-rule="nonzero" fill-opacity="1"></path><path clip-path="url(#clip910)" d="M176.413 440.488 Q179.769 441.205 181.644 443.474 Q183.542 445.742 183.542 449.076 Q183.542 454.191 180.024 456.992 Q176.505 459.793 170.024 459.793 Q167.848 459.793 165.533 459.353 Q163.241 458.937 160.788 458.08 L160.788 453.566 Q162.732 454.7 165.047 455.279 Q167.362 455.858 169.885 455.858 Q174.283 455.858 176.575 454.122 Q178.889 452.386 178.889 449.076 Q178.889 446.02 176.737 444.307 Q174.607 442.571 170.788 442.571 L166.76 442.571 L166.76 438.728 L170.973 438.728 Q174.422 438.728 176.251 437.363 Q178.079 435.974 178.079 433.381 Q178.079 430.719 176.181 429.307 Q174.306 427.872 170.788 427.872 Q168.866 427.872 166.667 428.289 Q164.468 428.705 161.829 429.585 L161.829 425.418 Q164.491 424.677 166.806 424.307 Q169.144 423.937 171.204 423.937 Q176.528 423.937 179.63 426.367 Q182.732 428.775 182.732 432.895 Q182.732 435.765 181.089 437.756 Q179.445 439.724 176.413 440.488 Z" fill="#000000" fill-rule="nonzero" fill-opacity="1"></path><path clip-path="url(#clip910)" d="M126.205 294.453 Q122.593 294.453 120.765 298.018 Q118.959 301.559 118.959 308.689 Q118.959 315.795 120.765 319.36 Q122.593 322.902 126.205 322.902 Q129.839 322.902 131.644 319.36 Q133.473 315.795 133.473 308.689 Q133.473 301.559 131.644 298.018 Q129.839 294.453 126.205 294.453 M126.205 290.749 Q132.015 290.749 135.07 295.356 Q138.149 299.939 138.149 308.689 Q138.149 317.416 135.07 322.022 Q132.015 326.606 126.205 326.606 Q120.394 326.606 117.316 322.022 Q114.26 317.416 114.26 308.689 Q114.26 299.939 117.316 295.356 Q120.394 290.749 126.205 290.749 Z" fill="#000000" fill-rule="nonzero" fill-opacity="1"></path><path clip-path="url(#clip910)" d="M146.366 320.055 L151.251 320.055 L151.251 325.934 L146.366 325.934 L146.366 320.055 Z" fill="#000000" fill-rule="nonzero" fill-opacity="1"></path><path clip-path="url(#clip910)" d="M172.014 306.791 Q168.866 306.791 167.015 308.944 Q165.186 311.096 165.186 314.846 Q165.186 318.573 167.015 320.749 Q168.866 322.902 172.014 322.902 Q175.163 322.902 176.991 320.749 Q178.843 318.573 178.843 314.846 Q178.843 311.096 176.991 308.944 Q175.163 306.791 172.014 306.791 M181.297 292.138 L181.297 296.397 Q179.538 295.564 177.732 295.124 Q175.95 294.684 174.19 294.684 Q169.561 294.684 167.107 297.809 Q164.677 300.934 164.329 307.254 Q165.695 305.24 167.755 304.175 Q169.815 303.087 172.292 303.087 Q177.501 303.087 180.51 306.258 Q183.542 309.407 183.542 314.846 Q183.542 320.17 180.394 323.388 Q177.246 326.606 172.014 326.606 Q166.019 326.606 162.848 322.022 Q159.677 317.416 159.677 308.689 Q159.677 300.495 163.565 295.634 Q167.454 290.749 174.005 290.749 Q175.764 290.749 177.547 291.097 Q179.352 291.444 181.297 292.138 Z" fill="#000000" fill-rule="nonzero" fill-opacity="1"></path><path clip-path="url(#clip910)" d="M126.552 161.266 Q122.941 161.266 121.112 164.83 Q119.306 168.372 119.306 175.502 Q119.306 182.608 121.112 186.173 Q122.941 189.714 126.552 189.714 Q130.186 189.714 131.992 186.173 Q133.82 182.608 133.82 175.502 Q133.82 168.372 131.992 164.83 Q130.186 161.266 126.552 161.266 M126.552 157.562 Q132.362 157.562 135.417 162.168 Q138.496 166.752 138.496 175.502 Q138.496 184.228 135.417 188.835 Q132.362 193.418 126.552 193.418 Q120.742 193.418 117.663 188.835 Q114.607 184.228 114.607 175.502 Q114.607 166.752 117.663 162.168 Q120.742 157.562 126.552 157.562 Z" fill="#000000" fill-rule="nonzero" fill-opacity="1"></path><path clip-path="url(#clip910)" d="M146.714 186.867 L151.598 186.867 L151.598 192.747 L146.714 192.747 L146.714 186.867 Z" fill="#000000" fill-rule="nonzero" fill-opacity="1"></path><path clip-path="url(#clip910)" d="M161.922 192.029 L161.922 187.77 Q163.681 188.603 165.487 189.043 Q167.292 189.483 169.028 189.483 Q173.658 189.483 176.089 186.381 Q178.542 183.256 178.889 176.914 Q177.547 178.904 175.487 179.969 Q173.427 181.034 170.927 181.034 Q165.741 181.034 162.709 177.909 Q159.7 174.761 159.7 169.321 Q159.7 163.997 162.848 160.779 Q165.996 157.562 171.227 157.562 Q177.223 157.562 180.371 162.168 Q183.542 166.752 183.542 175.502 Q183.542 183.673 179.653 188.557 Q175.788 193.418 169.237 193.418 Q167.477 193.418 165.672 193.071 Q163.866 192.724 161.922 192.029 M171.227 177.377 Q174.376 177.377 176.204 175.224 Q178.056 173.071 178.056 169.321 Q178.056 165.594 176.204 163.441 Q174.376 161.266 171.227 161.266 Q168.079 161.266 166.227 163.441 Q164.399 165.594 164.399 169.321 Q164.399 173.071 166.227 175.224 Q168.079 177.377 171.227 177.377 Z" fill="#000000" fill-rule="nonzero" fill-opacity="1"></path><path clip-path="url(#clip910)" d="M49.9359 458.566 L28.3562 458.566 L28.3562 452.709 L49.7131 452.709 Q54.7739 452.709 57.3202 450.736 Q59.8346 448.763 59.8346 444.816 Q59.8346 440.073 56.8109 437.336 Q53.7872 434.567 48.5673 434.567 L28.3562 434.567 L28.3562 428.711 L64.0042 428.711 L64.0042 434.567 L58.5296 434.567 Q61.7762 436.7 63.3676 439.532 Q64.9272 442.333 64.9272 446.057 Q64.9272 452.2 61.1078 455.383 Q57.2883 458.566 49.9359 458.566 M27.4968 443.829 L27.4968 443.829 Z" fill="#000000" fill-rule="nonzero" fill-opacity="1"></path><path clip-path="url(#clip910)" d="M58.5933 414.706 L58.5933 404.203 L22.3406 404.203 L24.6323 415.629 L18.7758 415.629 L16.4842 404.266 L16.4842 397.837 L58.5933 397.837 L58.5933 387.334 L64.0042 387.334 L64.0042 414.706 L58.5933 414.706 Z" fill="#000000" fill-rule="nonzero" fill-opacity="1"></path><path clip-path="url(#clip910)" d="M28.3562 345.543 L45.7028 358.433 L64.0042 344.874 L64.0042 351.781 L49.9996 362.157 L64.0042 372.533 L64.0042 379.44 L45.3526 365.595 L28.3562 378.262 L28.3562 371.356 L41.0558 361.903 L28.3562 352.449 L28.3562 345.543 Z" fill="#000000" fill-rule="nonzero" fill-opacity="1"></path><path clip-path="url(#clip910)" d="M1091.27 14.361 L1091.27 21.7568 Q1087.73 18.4582 1083.7 16.8263 Q1079.71 15.1944 1075.2 15.1944 Q1066.31 15.1944 1061.58 20.6457 Q1056.86 26.0624 1056.86 36.3401 Q1056.86 46.5831 1061.58 52.0344 Q1066.31 57.4511 1075.2 57.4511 Q1079.71 57.4511 1083.7 55.8191 Q1087.73 54.1872 1091.27 50.8886 L1091.27 58.215 Q1087.59 60.715 1083.46 61.9649 Q1079.36 63.2149 1074.78 63.2149 Q1063.01 63.2149 1056.24 56.0275 Q1049.47 48.8053 1049.47 36.3401 Q1049.47 23.8402 1056.24 16.6527 Q1063.01 9.43051 1074.78 9.43051 Q1079.43 9.43051 1083.53 10.6805 Q1087.66 11.8958 1091.27 14.361 Z" fill="#000000" fill-rule="nonzero" fill-opacity="1"></path><path clip-path="url(#clip910)" d="M1116.9 27.7985 Q1111.76 27.7985 1108.77 31.8262 Q1105.79 35.8193 1105.79 42.7984 Q1105.79 49.7775 1108.74 53.8053 Q1111.72 57.7983 1116.9 57.7983 Q1122 57.7983 1124.99 53.7705 Q1127.97 49.7428 1127.97 42.7984 Q1127.97 35.8887 1124.99 31.8609 Q1122 27.7985 1116.9 27.7985 M1116.9 22.3818 Q1125.23 22.3818 1129.99 27.7985 Q1134.74 33.2151 1134.74 42.7984 Q1134.74 52.3469 1129.99 57.7983 Q1125.23 63.2149 1116.9 63.2149 Q1108.53 63.2149 1103.77 57.7983 Q1099.05 52.3469 1099.05 42.7984 Q1099.05 33.2151 1103.77 27.7985 Q1108.53 22.3818 1116.9 22.3818 Z" fill="#000000" fill-rule="nonzero" fill-opacity="1"></path><path clip-path="url(#clip910)" d="M1177.66 38.7359 L1177.66 62.208 L1171.27 62.208 L1171.27 38.9442 Q1171.27 33.4234 1169.12 30.6804 Q1166.97 27.9374 1162.66 27.9374 Q1157.49 27.9374 1154.5 31.2359 Q1151.51 34.5345 1151.51 40.229 L1151.51 62.208 L1145.09 62.208 L1145.09 23.3193 L1151.51 23.3193 L1151.51 29.361 Q1153.81 25.854 1156.9 24.1179 Q1160.02 22.3818 1164.08 22.3818 Q1170.79 22.3818 1174.22 26.5485 Q1177.66 30.6804 1177.66 38.7359 Z" fill="#000000" fill-rule="nonzero" fill-opacity="1"></path><path clip-path="url(#clip910)" d="M1196.72 12.2777 L1196.72 23.3193 L1209.88 23.3193 L1209.88 28.2846 L1196.72 28.2846 L1196.72 49.3956 Q1196.72 54.1525 1198.01 55.5066 Q1199.33 56.8608 1203.32 56.8608 L1209.88 56.8608 L1209.88 62.208 L1203.32 62.208 Q1195.92 62.208 1193.11 59.465 Q1190.3 56.6872 1190.3 49.3956 L1190.3 28.2846 L1185.61 28.2846 L1185.61 23.3193 L1190.3 23.3193 L1190.3 12.2777 L1196.72 12.2777 Z" fill="#000000" fill-rule="nonzero" fill-opacity="1"></path><path clip-path="url(#clip910)" d="M1240.82 29.2915 Q1239.74 28.6665 1238.46 28.3887 Q1237.21 28.0762 1235.68 28.0762 Q1230.26 28.0762 1227.35 31.6179 Q1224.47 35.1248 1224.47 41.722 L1224.47 62.208 L1218.04 62.208 L1218.04 23.3193 L1224.47 23.3193 L1224.47 29.361 Q1226.48 25.8193 1229.71 24.1179 Q1232.94 22.3818 1237.56 22.3818 Q1238.22 22.3818 1239.01 22.486 Q1239.81 22.5554 1240.78 22.729 L1240.82 29.2915 Z" fill="#000000" fill-rule="nonzero" fill-opacity="1"></path><path clip-path="url(#clip910)" d="M1261.03 27.7985 Q1255.89 27.7985 1252.9 31.8262 Q1249.92 35.8193 1249.92 42.7984 Q1249.92 49.7775 1252.87 53.8053 Q1255.85 57.7983 1261.03 57.7983 Q1266.13 57.7983 1269.12 53.7705 Q1272.1 49.7428 1272.1 42.7984 Q1272.1 35.8887 1269.12 31.8609 Q1266.13 27.7985 1261.03 27.7985 M1261.03 22.3818 Q1269.36 22.3818 1274.12 27.7985 Q1278.87 33.2151 1278.87 42.7984 Q1278.87 52.3469 1274.12 57.7983 Q1269.36 63.2149 1261.03 63.2149 Q1252.66 63.2149 1247.9 57.7983 Q1243.18 52.3469 1243.18 42.7984 Q1243.18 33.2151 1247.9 27.7985 Q1252.66 22.3818 1261.03 22.3818 Z" fill="#000000" fill-rule="nonzero" fill-opacity="1"></path><path clip-path="url(#clip910)" d="M1289.47 8.18051 L1295.85 8.18051 L1295.85 62.208 L1289.47 62.208 L1289.47 8.18051 Z" fill="#000000" fill-rule="nonzero" fill-opacity="1"></path><path clip-path="url(#clip910)" d="M1332.1 10.368 L1361.9 10.368 L1361.9 16.2707 L1339.12 16.2707 L1339.12 31.5484 L1359.67 31.5484 L1359.67 37.4512 L1339.12 37.4512 L1339.12 62.208 L1332.1 62.208 L1332.1 10.368 Z" fill="#000000" fill-rule="nonzero" fill-opacity="1"></path><path clip-path="url(#clip910)" d="M1367.55 23.3193 L1373.94 23.3193 L1373.94 62.208 L1367.55 62.208 L1367.55 23.3193 M1367.55 8.18051 L1373.94 8.18051 L1373.94 16.2707 L1367.55 16.2707 L1367.55 8.18051 Z" fill="#000000" fill-rule="nonzero" fill-opacity="1"></path><path clip-path="url(#clip910)" d="M1420.58 41.1664 L1420.58 44.2914 L1391.2 44.2914 Q1391.62 50.8886 1395.16 54.3608 Q1398.74 57.7983 1405.09 57.7983 Q1408.77 57.7983 1412.21 56.8955 Q1415.68 55.9928 1419.08 54.1872 L1419.08 60.2288 Q1415.64 61.6872 1412.03 62.4511 Q1408.42 63.2149 1404.71 63.2149 Q1395.4 63.2149 1389.95 57.7983 Q1384.53 52.3817 1384.53 43.1456 Q1384.53 33.597 1389.67 28.0068 Q1394.85 22.3818 1403.6 22.3818 Q1411.44 22.3818 1415.99 27.4512 Q1420.58 32.4859 1420.58 41.1664 M1414.19 39.2915 Q1414.12 34.0484 1411.24 30.9234 Q1408.39 27.7985 1403.67 27.7985 Q1398.32 27.7985 1395.09 30.8193 Q1391.9 33.8401 1391.41 39.3262 L1414.19 39.2915 Z" fill="#000000" fill-rule="nonzero" fill-opacity="1"></path><path clip-path="url(#clip910)" d="M1431.06 8.18051 L1437.45 8.18051 L1437.45 62.208 L1431.06 62.208 L1431.06 8.18051 Z" fill="#000000" fill-rule="nonzero" fill-opacity="1"></path><path clip-path="url(#clip910)" d="M1476.41 29.2221 L1476.41 8.18051 L1482.8 8.18051 L1482.8 62.208 L1476.41 62.208 L1476.41 56.3747 Q1474.39 59.8469 1471.3 61.5483 Q1468.25 63.2149 1463.94 63.2149 Q1456.89 63.2149 1452.45 57.59 Q1448.04 51.965 1448.04 42.7984 Q1448.04 33.6318 1452.45 28.0068 Q1456.89 22.3818 1463.94 22.3818 Q1468.25 22.3818 1471.3 24.0832 Q1474.39 25.7499 1476.41 29.2221 M1454.64 42.7984 Q1454.64 49.847 1457.52 53.8747 Q1460.44 57.8677 1465.51 57.8677 Q1470.58 57.8677 1473.49 53.8747 Q1476.41 49.847 1476.41 42.7984 Q1476.41 35.7498 1473.49 31.7568 Q1470.58 27.729 1465.51 27.729 Q1460.44 27.729 1457.52 31.7568 Q1454.64 35.7498 1454.64 42.7984 Z" fill="#000000" fill-rule="nonzero" fill-opacity="1"></path><path clip-path="url(#clip910)" d="M1520.75 24.4651 L1520.75 30.5068 Q1518.04 29.1179 1515.12 28.4235 Q1512.21 27.729 1509.08 27.729 Q1504.32 27.729 1501.93 29.1873 Q1499.57 30.6457 1499.57 33.5623 Q1499.57 35.7845 1501.27 37.0692 Q1502.97 38.3192 1508.11 39.4651 L1510.3 39.9512 Q1517.1 41.4095 1519.95 44.0831 Q1522.83 46.722 1522.83 51.4789 Q1522.83 56.8955 1518.53 60.0552 Q1514.26 63.2149 1506.76 63.2149 Q1503.63 63.2149 1500.23 62.5899 Q1496.86 61.9997 1493.11 60.7844 L1493.11 54.1872 Q1496.65 56.0275 1500.09 56.965 Q1503.53 57.8677 1506.89 57.8677 Q1511.41 57.8677 1513.84 56.34 Q1516.27 54.7775 1516.27 51.965 Q1516.27 49.3608 1514.5 47.972 Q1512.76 46.5831 1506.82 45.2984 L1504.6 44.7775 Q1498.67 43.5275 1496.03 40.9581 Q1493.39 38.354 1493.39 33.8401 Q1493.39 28.354 1497.28 25.3679 Q1501.17 22.3818 1508.32 22.3818 Q1511.86 22.3818 1514.98 22.9027 Q1518.11 23.4235 1520.75 24.4651 Z" fill="#000000" fill-rule="nonzero" fill-opacity="1"></path><polyline clip-path="url(#clip912)" style="stroke:#009af9; stroke-linecap:round; stroke-linejoin:round; stroke-width:8; stroke-opacity:1; fill:none" points="279.916,575.029 283.276,573.583 286.636,572.445 289.995,571.866 293.355,571.977 296.715,572.759 300.074,574.044 303.434,575.555 306.794,576.96 310.154,577.951 313.513,578.308 316.873,577.948 320.233,576.945 323.592,575.514 326.952,573.967 330.312,572.642 333.672,571.832 337.031,571.717 340.391,572.329 343.751,573.538 347.11,575.083 350.47,576.627 353.83,577.831 357.189,578.429 360.549,578.286 363.909,577.426 367.269,576.034 370.628,574.411 373.988,572.912 377.348,571.867 380.707,571.508 384.067,571.919 387.427,573.016 390.787,574.563 394.146,576.225 397.506,577.636 400.866,578.486 404.225,578.583 407.585,577.901 410.945,576.583 414.305,574.914 417.664,573.257 421.024,571.977 424.384,571.356 427.743,571.537 431.103,572.487 434.463,574.002 437.822,575.754 441.182,577.362 444.542,578.47 447.902,578.831 451.261,578.361 454.621,577.155 457.981,575.473 461.34,573.679 464.7,572.168 468.06,571.272 471.42,571.194 474.779,571.958 478.139,573.402 481.499,575.216 484.858,577.004 488.218,578.374 491.578,579.02 494.938,578.795 498.297,577.742 501.657,576.083 505.017,574.179 508.376,572.445 511.736,571.263 515.096,570.899 518.456,571.438 521.815,572.772 525.175,574.612 528.535,576.561 531.894,578.19 535.254,579.14 538.614,579.195 541.973,578.336 545.333,576.742 548.693,574.757 552.053,572.814 555.412,571.34 558.772,570.663 562.132,570.939 565.491,572.116 568.851,573.944 572.211,576.028 575.571,577.912 578.93,579.181 582.29,579.549 585.65,578.928 589.009,577.444 592.369,575.415 595.729,573.281 599.089,571.511 602.448,570.496 605.808,570.468 609.168,571.442 612.527,573.214 615.887,575.403 619.247,577.532 622.606,579.132 625.966,579.846 629.326,579.509 632.686,578.184 636.045,576.151 639.405,573.851 642.765,571.786 646.124,570.412 649.484,570.038 652.844,570.758 656.204,572.425 659.563,574.682 662.923,577.04 666.283,578.981 669.642,580.075 673.002,580.07 676.362,578.958 679.722,576.968 683.081,574.531 686.441,572.175 689.801,570.421 693.16,569.66 696.52,570.072 699.88,571.579 703.24,573.862 706.599,576.428 709.959,578.717 713.319,580.221 716.678,580.601 720.038,579.759 723.398,577.867 726.757,575.328 730.117,572.692 733.477,570.539 736.837,569.347 740.196,569.391 743.556,570.676 746.916,572.935 750.275,575.683 753.635,578.322 756.995,580.27 760.355,581.089 763.714,580.585 767.074,578.851 770.434,576.254 773.793,573.352 777.153,570.782 780.513,569.113 783.873,568.723 787.232,569.717 790.592,571.894 793.952,574.791 797.311,577.781 800.671,580.205 804.031,581.524 807.39,581.431 810.75,579.926 814.11,577.322 817.47,574.175 820.829,571.171 824.189,568.973 827.549,568.077 830.908,568.7 834.268,570.726 837.628,573.731 840.988,577.067 844.347,580.005 847.707,581.891 851.067,582.294 854.426,581.102 857.786,578.553 861.146,575.187 864.506,571.732 867.865,568.948 871.225,567.461 874.585,567.617 877.944,569.411 881.304,572.473 884.664,576.15 888.024,579.642 891.383,582.176 894.743,583.177 898.103,582.398 901.462,579.98 904.822,576.426 908.182,572.502 911.541,569.064 914.901,566.881 918.261,566.456 921.621,567.916 924.98,570.973 928.34,574.982 931.7,579.079 935.059,582.359 938.419,584.084 941.779,583.844 945.139,581.651 948.498,577.953 951.858,573.534 955.218,569.356 958.577,566.346 961.937,565.192 965.297,566.188 968.657,569.159 972.016,573.491 975.376,578.257 978.736,582.413 982.095,585.029 985.455,585.492 988.815,583.651 992.175,579.861 995.534,574.914 998.894,569.877 1002.25,565.861 1005.61,563.778 1008.97,564.135 1012.33,566.912 1015.69,571.556 1019.05,577.086 1022.41,582.301 1025.77,586.039 1029.13,587.437 1032.49,586.121 1035.85,582.312 1039.21,576.785 1042.57,570.716 1045.93,565.434 1049.29,562.13 1052.65,561.593 1056.01,564.021 1059.37,568.965 1062.73,575.404 1066.09,581.955 1069.45,587.172 1072.81,589.856 1076.17,589.331 1079.53,585.61 1082.89,579.414 1086.25,572.035 1089.61,565.069 1092.97,560.077 1096.33,558.237 1099.69,560.069 1103.04,565.3 1106.4,572.894 1109.76,581.253 1113.12,588.55 1116.48,593.12 1119.84,593.838 1123.2,590.387 1126.56,583.362 1129.92,574.173 1133.28,564.771 1136.64,557.241 1140,553.344 1143.36,554.118 1146.72,559.613 1150.08,568.834 1153.44,579.911 1156.8,590.468 1160.16,598.122 1163.52,601.006 1166.88,598.211 1170.24,590.038 1173.6,577.996 1176.96,564.545 1180.32,552.605 1183.68,544.947 1187.04,543.572 1190.4,549.222 1193.76,561.132 1197.12,577.095 1200.48,593.84 1203.84,607.671 1207.2,615.236 1210.56,614.289 1213.92,604.269 1217.28,586.565 1220.63,564.392 1223.99,542.274 1227.35,525.202 1230.71,517.618 1234.07,522.421 1237.43,540.186 1240.79,568.768 1244.15,603.401 1247.51,637.313 1250.87,662.766 1254.23,672.369 1257.59,660.439 1260.95,624.157 1264.31,564.315 1267.67,485.481 1271.03,395.546 1274.39,304.689 1277.75,223.919 1281.11,163.436 1284.47,131.071 1287.83,131.071 1291.19,163.436 1294.55,223.919 1297.91,304.689 1301.27,395.546 1304.63,485.481 1307.99,564.315 1311.35,624.157 1314.71,660.439 1318.07,672.369 1321.43,662.766 1324.79,637.313 1328.15,603.401 1331.51,568.768 1334.86,540.186 1338.22,522.421 1341.58,517.618 1344.94,525.202 1348.3,542.274 1351.66,564.392 1355.02,586.565 1358.38,604.269 1361.74,614.289 1365.1,615.236 1368.46,607.671 1371.82,593.84 1375.18,577.095 1378.54,561.132 1381.9,549.222 1385.26,543.572 1388.62,544.947 1391.98,552.605 1395.34,564.545 1398.7,577.996 1402.06,590.038 1405.42,598.211 1408.78,601.006 1412.14,598.122 1415.5,590.468 1418.86,579.911 1422.22,568.834 1425.58,559.613 1428.94,554.118 1432.3,553.344 1435.66,557.241 1439.02,564.771 1442.38,574.173 1445.74,583.362 1449.09,590.387 1452.45,593.838 1455.81,593.12 1459.17,588.55 1462.53,581.253 1465.89,572.894 1469.25,565.3 1472.61,560.069 1475.97,558.237 1479.33,560.077 1482.69,565.069 1486.05,572.035 1489.41,579.414 1492.77,585.61 1496.13,589.331 1499.49,589.856 1502.85,587.172 1506.21,581.955 1509.57,575.404 1512.93,568.965 1516.29,564.021 1519.65,561.593 1523.01,562.13 1526.37,565.434 1529.73,570.716 1533.09,576.785 1536.45,582.312 1539.81,586.121 1543.17,587.437 1546.53,586.039 1549.89,582.301 1553.25,577.086 1556.61,571.556 1559.97,566.912 1563.33,564.135 1566.68,563.778 1570.04,565.861 1573.4,569.877 1576.76,574.914 1580.12,579.861 1583.48,583.651 1586.84,585.492 1590.2,585.029 1593.56,582.413 1596.92,578.257 1600.28,573.491 1603.64,569.159 1607,566.188 1610.36,565.192 1613.72,566.346 1617.08,569.356 1620.44,573.534 1623.8,577.953 1627.16,581.651 1630.52,583.844 1633.88,584.084 1637.24,582.359 1640.6,579.079 1643.96,574.982 1647.32,570.973 1650.68,567.916 1654.04,566.456 1657.4,566.881 1660.76,569.064 1664.12,572.502 1667.48,576.426 1670.84,579.98 1674.2,582.398 1677.56,583.177 1680.91,582.176 1684.27,579.642 1687.63,576.15 1690.99,572.473 1694.35,569.411 1697.71,567.617 1701.07,567.461 1704.43,568.948 1707.79,571.732 1711.15,575.187 1714.51,578.553 1717.87,581.102 1721.23,582.294 1724.59,581.891 1727.95,580.005 1731.31,577.067 1734.67,573.731 1738.03,570.726 1741.39,568.7 1744.75,568.077 1748.11,568.973 1751.47,571.171 1754.83,574.175 1758.19,577.322 1761.55,579.926 1764.91,581.431 1768.27,581.524 1771.63,580.205 1774.99,577.781 1778.35,574.791 1781.71,571.894 1785.07,569.717 1788.43,568.723 1791.79,569.113 1795.14,570.782 1798.5,573.352 1801.86,576.254 1805.22,578.851 1808.58,580.585 1811.94,581.089 1815.3,580.27 1818.66,578.322 1822.02,575.683 1825.38,572.935 1828.74,570.676 1832.1,569.391 1835.46,569.347 1838.82,570.539 1842.18,572.692 1845.54,575.328 1848.9,577.867 1852.26,579.759 1855.62,580.601 1858.98,580.221 1862.34,578.717 1865.7,576.428 1869.06,573.862 1872.42,571.579 1875.78,570.072 1879.14,569.66 1882.5,570.421 1885.86,572.175 1889.22,574.531 1892.58,576.968 1895.94,578.958 1899.3,580.07 1902.66,580.075 1906.02,578.981 1909.38,577.04 1912.73,574.682 1916.09,572.425 1919.45,570.758 1922.81,570.038 1926.17,570.412 1929.53,571.786 1932.89,573.851 1936.25,576.151 1939.61,578.184 1942.97,579.509 1946.33,579.846 1949.69,579.132 1953.05,577.532 1956.41,575.403 1959.77,573.214 1963.13,571.442 1966.49,570.468 1969.85,570.496 1973.21,571.511 1976.57,573.281 1979.93,575.415 1983.29,577.444 1986.65,578.928 1990.01,579.549 1993.37,579.181 1996.73,577.912 2000.09,576.028 2003.45,573.944 2006.81,572.116 2010.17,570.939 2013.53,570.663 2016.89,571.34 2020.25,572.814 2023.61,574.757 2026.96,576.742 2030.32,578.336 2033.68,579.195 2037.04,579.14 2040.4,578.19 2043.76,576.561 2047.12,574.612 2050.48,572.772 2053.84,571.438 2057.2,570.899 2060.56,571.263 2063.92,572.445 2067.28,574.179 2070.64,576.083 2074,577.742 2077.36,578.795 2080.72,579.02 2084.08,578.374 2087.44,577.004 2090.8,575.216 2094.16,573.402 2097.52,571.958 2100.88,571.194 2104.24,571.272 2107.6,572.168 2110.96,573.679 2114.32,575.473 2117.68,577.155 2121.04,578.361 2124.4,578.831 2127.76,578.47 2131.12,577.362 2134.48,575.754 2137.84,574.002 2141.2,572.487 2144.55,571.537 2147.91,571.356 2151.27,571.977 2154.63,573.257 2157.99,574.914 2161.35,576.583 2164.71,577.901 2168.07,578.583 2171.43,578.486 2174.79,577.636 2178.15,576.225 2181.51,574.563 2184.87,573.016 2188.23,571.919 2191.59,571.508 2194.95,571.867 2198.31,572.912 2201.67,574.411 2205.03,576.034 2208.39,577.426 2211.75,578.286 2215.11,578.429 2218.47,577.831 2221.83,576.627 2225.19,575.083 2228.55,573.538 2231.91,572.329 2235.27,571.717 2238.63,571.832 2241.99,572.642 2245.35,573.967 2248.71,575.514 2252.07,576.945 2255.43,577.948 2258.78,578.308 2262.14,577.951 2265.5,576.96 2268.86,575.555 2272.22,574.044 2275.58,572.759 2278.94,571.977 2282.3,571.866 2285.66,572.445 2289.02,573.583 2292.38,575.029 "></polyline>
<path clip-path="url(#clip910)" d="M219.542 1423.18 L2352.76 1423.18 L2352.76 849.404 L219.542 849.404  Z" fill="#ffffff" fill-rule="evenodd" fill-opacity="1"></path>
<defs>
  <clipPath id="clip913">
    <rect x="219" y="849" width="2134" height="575"></rect>
  </clipPath>
</defs>
<polyline clip-path="url(#clip913)" style="stroke:#000000; stroke-linecap:round; stroke-linejoin:round; stroke-width:2; stroke-opacity:0.1; fill:none" points="279.916,1423.18 279.916,849.404 "></polyline>
<polyline clip-path="url(#clip913)" style="stroke:#000000; stroke-linecap:round; stroke-linejoin:round; stroke-width:2; stroke-opacity:0.1; fill:none" points="706.055,1423.18 706.055,849.404 "></polyline>
<polyline clip-path="url(#clip913)" style="stroke:#000000; stroke-linecap:round; stroke-linejoin:round; stroke-width:2; stroke-opacity:0.1; fill:none" points="1132.19,1423.18 1132.19,849.404 "></polyline>
<polyline clip-path="url(#clip913)" style="stroke:#000000; stroke-linecap:round; stroke-linejoin:round; stroke-width:2; stroke-opacity:0.1; fill:none" points="1558.33,1423.18 1558.33,849.404 "></polyline>
<polyline clip-path="url(#clip913)" style="stroke:#000000; stroke-linecap:round; stroke-linejoin:round; stroke-width:2; stroke-opacity:0.1; fill:none" points="1984.47,1423.18 1984.47,849.404 "></polyline>
<polyline clip-path="url(#clip910)" style="stroke:#000000; stroke-linecap:round; stroke-linejoin:round; stroke-width:4; stroke-opacity:1; fill:none" points="219.542,1423.18 2352.76,1423.18 "></polyline>
<polyline clip-path="url(#clip910)" style="stroke:#000000; stroke-linecap:round; stroke-linejoin:round; stroke-width:4; stroke-opacity:1; fill:none" points="279.916,1423.18 279.916,1404.28 "></polyline>
<polyline clip-path="url(#clip910)" style="stroke:#000000; stroke-linecap:round; stroke-linejoin:round; stroke-width:4; stroke-opacity:1; fill:none" points="706.055,1423.18 706.055,1404.28 "></polyline>
<polyline clip-path="url(#clip910)" style="stroke:#000000; stroke-linecap:round; stroke-linejoin:round; stroke-width:4; stroke-opacity:1; fill:none" points="1132.19,1423.18 1132.19,1404.28 "></polyline>
<polyline clip-path="url(#clip910)" style="stroke:#000000; stroke-linecap:round; stroke-linejoin:round; stroke-width:4; stroke-opacity:1; fill:none" points="1558.33,1423.18 1558.33,1404.28 "></polyline>
<polyline clip-path="url(#clip910)" style="stroke:#000000; stroke-linecap:round; stroke-linejoin:round; stroke-width:4; stroke-opacity:1; fill:none" points="1984.47,1423.18 1984.47,1404.28 "></polyline>
<path clip-path="url(#clip910)" d="M279.916 1454.1 Q276.305 1454.1 274.476 1457.66 Q272.671 1461.2 272.671 1468.33 Q272.671 1475.44 274.476 1479.01 Q276.305 1482.55 279.916 1482.55 Q283.55 1482.55 285.356 1479.01 Q287.185 1475.44 287.185 1468.33 Q287.185 1461.2 285.356 1457.66 Q283.55 1454.1 279.916 1454.1 M279.916 1450.39 Q285.726 1450.39 288.782 1455 Q291.861 1459.58 291.861 1468.33 Q291.861 1477.06 288.782 1481.67 Q285.726 1486.25 279.916 1486.25 Q274.106 1486.25 271.027 1481.67 Q267.972 1477.06 267.972 1468.33 Q267.972 1459.58 271.027 1455 Q274.106 1450.39 279.916 1450.39 Z" fill="#000000" fill-rule="nonzero" fill-opacity="1"></path><path clip-path="url(#clip910)" d="M696.333 1451.02 L714.689 1451.02 L714.689 1454.96 L700.615 1454.96 L700.615 1463.43 Q701.634 1463.08 702.652 1462.92 Q703.671 1462.73 704.689 1462.73 Q710.476 1462.73 713.856 1465.9 Q717.235 1469.08 717.235 1474.49 Q717.235 1480.07 713.763 1483.17 Q710.291 1486.25 703.971 1486.25 Q701.796 1486.25 699.527 1485.88 Q697.282 1485.51 694.874 1484.77 L694.874 1480.07 Q696.958 1481.2 699.18 1481.76 Q701.402 1482.32 703.879 1482.32 Q707.883 1482.32 710.221 1480.21 Q712.559 1478.1 712.559 1474.49 Q712.559 1470.88 710.221 1468.77 Q707.883 1466.67 703.879 1466.67 Q702.004 1466.67 700.129 1467.08 Q698.277 1467.5 696.333 1468.38 L696.333 1451.02 Z" fill="#000000" fill-rule="nonzero" fill-opacity="1"></path><path clip-path="url(#clip910)" d="M1106.88 1481.64 L1114.52 1481.64 L1114.52 1455.28 L1106.21 1456.95 L1106.21 1452.69 L1114.47 1451.02 L1119.15 1451.02 L1119.15 1481.64 L1126.79 1481.64 L1126.79 1485.58 L1106.88 1485.58 L1106.88 1481.64 Z" fill="#000000" fill-rule="nonzero" fill-opacity="1"></path><path clip-path="url(#clip910)" d="M1146.23 1454.1 Q1142.62 1454.1 1140.79 1457.66 Q1138.99 1461.2 1138.99 1468.33 Q1138.99 1475.44 1140.79 1479.01 Q1142.62 1482.55 1146.23 1482.55 Q1149.87 1482.55 1151.67 1479.01 Q1153.5 1475.44 1153.5 1468.33 Q1153.5 1461.2 1151.67 1457.66 Q1149.87 1454.1 1146.23 1454.1 M1146.23 1450.39 Q1152.04 1450.39 1155.1 1455 Q1158.18 1459.58 1158.18 1468.33 Q1158.18 1477.06 1155.1 1481.67 Q1152.04 1486.25 1146.23 1486.25 Q1140.42 1486.25 1137.34 1481.67 Q1134.29 1477.06 1134.29 1468.33 Q1134.29 1459.58 1137.34 1455 Q1140.42 1450.39 1146.23 1450.39 Z" fill="#000000" fill-rule="nonzero" fill-opacity="1"></path><path clip-path="url(#clip910)" d="M1533.52 1481.64 L1541.16 1481.64 L1541.16 1455.28 L1532.85 1456.95 L1532.85 1452.69 L1541.11 1451.02 L1545.79 1451.02 L1545.79 1481.64 L1553.42 1481.64 L1553.42 1485.58 L1533.52 1485.58 L1533.52 1481.64 Z" fill="#000000" fill-rule="nonzero" fill-opacity="1"></path><path clip-path="url(#clip910)" d="M1562.92 1451.02 L1581.27 1451.02 L1581.27 1454.96 L1567.2 1454.96 L1567.2 1463.43 Q1568.22 1463.08 1569.23 1462.92 Q1570.25 1462.73 1571.27 1462.73 Q1577.06 1462.73 1580.44 1465.9 Q1583.82 1469.08 1583.82 1474.49 Q1583.82 1480.07 1580.35 1483.17 Q1576.87 1486.25 1570.55 1486.25 Q1568.38 1486.25 1566.11 1485.88 Q1563.86 1485.51 1561.46 1484.77 L1561.46 1480.07 Q1563.54 1481.2 1565.76 1481.76 Q1567.98 1482.32 1570.46 1482.32 Q1574.47 1482.32 1576.8 1480.21 Q1579.14 1478.1 1579.14 1474.49 Q1579.14 1470.88 1576.8 1468.77 Q1574.47 1466.67 1570.46 1466.67 Q1568.59 1466.67 1566.71 1467.08 Q1564.86 1467.5 1562.92 1468.38 L1562.92 1451.02 Z" fill="#000000" fill-rule="nonzero" fill-opacity="1"></path><path clip-path="url(#clip910)" d="M1963.24 1481.64 L1979.56 1481.64 L1979.56 1485.58 L1957.62 1485.58 L1957.62 1481.64 Q1960.28 1478.89 1964.86 1474.26 Q1969.47 1469.61 1970.65 1468.27 Q1972.9 1465.74 1973.78 1464.01 Q1974.68 1462.25 1974.68 1460.56 Q1974.68 1457.8 1972.73 1456.07 Q1970.81 1454.33 1967.71 1454.33 Q1965.51 1454.33 1963.06 1455.09 Q1960.63 1455.86 1957.85 1457.41 L1957.85 1452.69 Q1960.67 1451.55 1963.13 1450.97 Q1965.58 1450.39 1967.62 1450.39 Q1972.99 1450.39 1976.18 1453.08 Q1979.38 1455.77 1979.38 1460.26 Q1979.38 1462.39 1978.57 1464.31 Q1977.78 1466.2 1975.67 1468.8 Q1975.1 1469.47 1971.99 1472.69 Q1968.89 1475.88 1963.24 1481.64 Z" fill="#000000" fill-rule="nonzero" fill-opacity="1"></path><path clip-path="url(#clip910)" d="M1999.38 1454.1 Q1995.77 1454.1 1993.94 1457.66 Q1992.13 1461.2 1992.13 1468.33 Q1992.13 1475.44 1993.94 1479.01 Q1995.77 1482.55 1999.38 1482.55 Q2003.01 1482.55 2004.82 1479.01 Q2006.65 1475.44 2006.65 1468.33 Q2006.65 1461.2 2004.82 1457.66 Q2003.01 1454.1 1999.38 1454.1 M1999.38 1450.39 Q2005.19 1450.39 2008.24 1455 Q2011.32 1459.58 2011.32 1468.33 Q2011.32 1477.06 2008.24 1481.67 Q2005.19 1486.25 1999.38 1486.25 Q1993.57 1486.25 1990.49 1481.67 Q1987.43 1477.06 1987.43 1468.33 Q1987.43 1459.58 1990.49 1455 Q1993.57 1450.39 1999.38 1450.39 Z" fill="#000000" fill-rule="nonzero" fill-opacity="1"></path><path clip-path="url(#clip910)" d="M1234.46 1522.27 L1234.46 1532.4 L1246.52 1532.4 L1246.52 1536.95 L1234.46 1536.95 L1234.46 1556.3 Q1234.46 1560.66 1235.64 1561.9 Q1236.85 1563.14 1240.51 1563.14 L1246.52 1563.14 L1246.52 1568.04 L1240.51 1568.04 Q1233.73 1568.04 1231.15 1565.53 Q1228.57 1562.98 1228.57 1556.3 L1228.57 1536.95 L1224.27 1536.95 L1224.27 1532.4 L1228.57 1532.4 L1228.57 1522.27 L1234.46 1522.27 Z" fill="#000000" fill-rule="nonzero" fill-opacity="1"></path><path clip-path="url(#clip910)" d="M1274.4 1518.52 L1287.9 1518.52 L1287.9 1523.07 L1280.26 1523.07 L1280.26 1572.09 L1287.9 1572.09 L1287.9 1576.64 L1274.4 1576.64 L1274.4 1518.52 Z" fill="#000000" fill-rule="nonzero" fill-opacity="1"></path><path clip-path="url(#clip910)" d="M1323.1 1533.45 L1323.1 1538.98 Q1320.62 1537.71 1317.95 1537.07 Q1315.27 1536.44 1312.41 1536.44 Q1308.05 1536.44 1305.85 1537.77 Q1303.69 1539.11 1303.69 1541.79 Q1303.69 1543.82 1305.25 1545 Q1306.81 1546.15 1311.52 1547.2 L1313.52 1547.64 Q1319.76 1548.98 1322.37 1551.43 Q1325.01 1553.85 1325.01 1558.21 Q1325.01 1563.17 1321.06 1566.07 Q1317.15 1568.97 1310.28 1568.97 Q1307.41 1568.97 1304.29 1568.39 Q1301.2 1567.85 1297.77 1566.74 L1297.77 1560.69 Q1301.01 1562.38 1304.16 1563.24 Q1307.32 1564.07 1310.4 1564.07 Q1314.54 1564.07 1316.77 1562.66 Q1319 1561.23 1319 1558.65 Q1319 1556.27 1317.37 1554.99 Q1315.78 1553.72 1310.34 1552.54 L1308.3 1552.07 Q1302.86 1550.92 1300.44 1548.56 Q1298.02 1546.18 1298.02 1542.04 Q1298.02 1537.01 1301.59 1534.27 Q1305.15 1531.54 1311.71 1531.54 Q1314.95 1531.54 1317.82 1532.01 Q1320.68 1532.49 1323.1 1533.45 Z" fill="#000000" fill-rule="nonzero" fill-opacity="1"></path><path clip-path="url(#clip910)" d="M1348.02 1518.52 L1348.02 1576.64 L1334.53 1576.64 L1334.53 1572.09 L1342.14 1572.09 L1342.14 1523.07 L1334.53 1523.07 L1334.53 1518.52 L1348.02 1518.52 Z" fill="#000000" fill-rule="nonzero" fill-opacity="1"></path><polyline clip-path="url(#clip913)" style="stroke:#000000; stroke-linecap:round; stroke-linejoin:round; stroke-width:2; stroke-opacity:0.1; fill:none" points="219.542,1309.6 2352.76,1309.6 "></polyline>
<polyline clip-path="url(#clip913)" style="stroke:#000000; stroke-linecap:round; stroke-linejoin:round; stroke-width:2; stroke-opacity:0.1; fill:none" points="219.542,1176.41 2352.76,1176.41 "></polyline>
<polyline clip-path="url(#clip913)" style="stroke:#000000; stroke-linecap:round; stroke-linejoin:round; stroke-width:2; stroke-opacity:0.1; fill:none" points="219.542,1043.23 2352.76,1043.23 "></polyline>
<polyline clip-path="url(#clip913)" style="stroke:#000000; stroke-linecap:round; stroke-linejoin:round; stroke-width:2; stroke-opacity:0.1; fill:none" points="219.542,910.039 2352.76,910.039 "></polyline>
<polyline clip-path="url(#clip910)" style="stroke:#000000; stroke-linecap:round; stroke-linejoin:round; stroke-width:4; stroke-opacity:1; fill:none" points="219.542,1423.18 219.542,849.404 "></polyline>
<polyline clip-path="url(#clip910)" style="stroke:#000000; stroke-linecap:round; stroke-linejoin:round; stroke-width:4; stroke-opacity:1; fill:none" points="219.542,1309.6 238.44,1309.6 "></polyline>
<polyline clip-path="url(#clip910)" style="stroke:#000000; stroke-linecap:round; stroke-linejoin:round; stroke-width:4; stroke-opacity:1; fill:none" points="219.542,1176.41 238.44,1176.41 "></polyline>
<polyline clip-path="url(#clip910)" style="stroke:#000000; stroke-linecap:round; stroke-linejoin:round; stroke-width:4; stroke-opacity:1; fill:none" points="219.542,1043.23 238.44,1043.23 "></polyline>
<polyline clip-path="url(#clip910)" style="stroke:#000000; stroke-linecap:round; stroke-linejoin:round; stroke-width:4; stroke-opacity:1; fill:none" points="219.542,910.039 238.44,910.039 "></polyline>
<path clip-path="url(#clip910)" d="M126.367 1295.4 Q122.755 1295.4 120.927 1298.96 Q119.121 1302.51 119.121 1309.64 Q119.121 1316.74 120.927 1320.31 Q122.755 1323.85 126.367 1323.85 Q130.001 1323.85 131.806 1320.31 Q133.635 1316.74 133.635 1309.64 Q133.635 1302.51 131.806 1298.96 Q130.001 1295.4 126.367 1295.4 M126.367 1291.7 Q132.177 1291.7 135.232 1296.3 Q138.311 1300.89 138.311 1309.64 Q138.311 1318.36 135.232 1322.97 Q132.177 1327.55 126.367 1327.55 Q120.556 1327.55 117.478 1322.97 Q114.422 1318.36 114.422 1309.64 Q114.422 1300.89 117.478 1296.3 Q120.556 1291.7 126.367 1291.7 Z" fill="#000000" fill-rule="nonzero" fill-opacity="1"></path><path clip-path="url(#clip910)" d="M146.529 1321 L151.413 1321 L151.413 1326.88 L146.529 1326.88 L146.529 1321 Z" fill="#000000" fill-rule="nonzero" fill-opacity="1"></path><path clip-path="url(#clip910)" d="M171.598 1295.4 Q167.987 1295.4 166.158 1298.96 Q164.352 1302.51 164.352 1309.64 Q164.352 1316.74 166.158 1320.31 Q167.987 1323.85 171.598 1323.85 Q175.232 1323.85 177.038 1320.31 Q178.866 1316.74 178.866 1309.64 Q178.866 1302.51 177.038 1298.96 Q175.232 1295.4 171.598 1295.4 M171.598 1291.7 Q177.408 1291.7 180.464 1296.3 Q183.542 1300.89 183.542 1309.64 Q183.542 1318.36 180.464 1322.97 Q177.408 1327.55 171.598 1327.55 Q165.788 1327.55 162.709 1322.97 Q159.653 1318.36 159.653 1309.64 Q159.653 1300.89 162.709 1296.3 Q165.788 1291.7 171.598 1291.7 Z" fill="#000000" fill-rule="nonzero" fill-opacity="1"></path><path clip-path="url(#clip910)" d="M127.593 1162.21 Q123.982 1162.21 122.154 1165.78 Q120.348 1169.32 120.348 1176.45 Q120.348 1183.55 122.154 1187.12 Q123.982 1190.66 127.593 1190.66 Q131.228 1190.66 133.033 1187.12 Q134.862 1183.55 134.862 1176.45 Q134.862 1169.32 133.033 1165.78 Q131.228 1162.21 127.593 1162.21 M127.593 1158.51 Q133.404 1158.51 136.459 1163.12 Q139.538 1167.7 139.538 1176.45 Q139.538 1185.18 136.459 1189.78 Q133.404 1194.37 127.593 1194.37 Q121.783 1194.37 118.705 1189.78 Q115.649 1185.18 115.649 1176.45 Q115.649 1167.7 118.705 1163.12 Q121.783 1158.51 127.593 1158.51 Z" fill="#000000" fill-rule="nonzero" fill-opacity="1"></path><path clip-path="url(#clip910)" d="M147.755 1187.81 L152.64 1187.81 L152.64 1193.69 L147.755 1193.69 L147.755 1187.81 Z" fill="#000000" fill-rule="nonzero" fill-opacity="1"></path><path clip-path="url(#clip910)" d="M163.635 1189.76 L171.274 1189.76 L171.274 1163.39 L162.964 1165.06 L162.964 1160.8 L171.227 1159.13 L175.903 1159.13 L175.903 1189.76 L183.542 1189.76 L183.542 1193.69 L163.635 1193.69 L163.635 1189.76 Z" fill="#000000" fill-rule="nonzero" fill-opacity="1"></path><path clip-path="url(#clip910)" d="M127.964 1029.02 Q124.353 1029.02 122.524 1032.59 Q120.718 1036.13 120.718 1043.26 Q120.718 1050.37 122.524 1053.93 Q124.353 1057.47 127.964 1057.47 Q131.598 1057.47 133.404 1053.93 Q135.232 1050.37 135.232 1043.26 Q135.232 1036.13 133.404 1032.59 Q131.598 1029.02 127.964 1029.02 M127.964 1025.32 Q133.774 1025.32 136.829 1029.93 Q139.908 1034.51 139.908 1043.26 Q139.908 1051.99 136.829 1056.59 Q133.774 1061.18 127.964 1061.18 Q122.154 1061.18 119.075 1056.59 Q116.019 1051.99 116.019 1043.26 Q116.019 1034.51 119.075 1029.93 Q122.154 1025.32 127.964 1025.32 Z" fill="#000000" fill-rule="nonzero" fill-opacity="1"></path><path clip-path="url(#clip910)" d="M148.126 1054.63 L153.01 1054.63 L153.01 1060.51 L148.126 1060.51 L148.126 1054.63 Z" fill="#000000" fill-rule="nonzero" fill-opacity="1"></path><path clip-path="url(#clip910)" d="M167.223 1056.57 L183.542 1056.57 L183.542 1060.51 L161.598 1060.51 L161.598 1056.57 Q164.26 1053.82 168.843 1049.19 Q173.45 1044.53 174.63 1043.19 Q176.876 1040.67 177.755 1038.93 Q178.658 1037.17 178.658 1035.48 Q178.658 1032.73 176.714 1030.99 Q174.792 1029.26 171.69 1029.26 Q169.491 1029.26 167.038 1030.02 Q164.607 1030.78 161.829 1032.34 L161.829 1027.61 Q164.653 1026.48 167.107 1025.9 Q169.561 1025.32 171.598 1025.32 Q176.968 1025.32 180.163 1028.01 Q183.357 1030.69 183.357 1035.18 Q183.357 1037.31 182.547 1039.23 Q181.76 1041.13 179.653 1043.72 Q179.075 1044.4 175.973 1047.61 Q172.871 1050.81 167.223 1056.57 Z" fill="#000000" fill-rule="nonzero" fill-opacity="1"></path><path clip-path="url(#clip910)" d="M127.015 895.838 Q123.404 895.838 121.575 899.402 Q119.769 902.944 119.769 910.074 Q119.769 917.18 121.575 920.745 Q123.404 924.286 127.015 924.286 Q130.649 924.286 132.455 920.745 Q134.283 917.18 134.283 910.074 Q134.283 902.944 132.455 899.402 Q130.649 895.838 127.015 895.838 M127.015 892.134 Q132.825 892.134 135.88 896.74 Q138.959 901.324 138.959 910.074 Q138.959 918.8 135.88 923.407 Q132.825 927.99 127.015 927.99 Q121.205 927.99 118.126 923.407 Q115.07 918.8 115.07 910.074 Q115.07 901.324 118.126 896.74 Q121.205 892.134 127.015 892.134 Z" fill="#000000" fill-rule="nonzero" fill-opacity="1"></path><path clip-path="url(#clip910)" d="M147.177 921.439 L152.061 921.439 L152.061 927.319 L147.177 927.319 L147.177 921.439 Z" fill="#000000" fill-rule="nonzero" fill-opacity="1"></path><path clip-path="url(#clip910)" d="M176.413 908.685 Q179.769 909.402 181.644 911.671 Q183.542 913.939 183.542 917.273 Q183.542 922.388 180.024 925.189 Q176.505 927.99 170.024 927.99 Q167.848 927.99 165.533 927.55 Q163.241 927.134 160.788 926.277 L160.788 921.763 Q162.732 922.898 165.047 923.476 Q167.362 924.055 169.885 924.055 Q174.283 924.055 176.575 922.319 Q178.889 920.583 178.889 917.273 Q178.889 914.217 176.737 912.504 Q174.607 910.768 170.788 910.768 L166.76 910.768 L166.76 906.925 L170.973 906.925 Q174.422 906.925 176.251 905.56 Q178.079 904.171 178.079 901.578 Q178.079 898.916 176.181 897.504 Q174.306 896.069 170.788 896.069 Q168.866 896.069 166.667 896.486 Q164.468 896.902 161.829 897.782 L161.829 893.615 Q164.491 892.875 166.806 892.504 Q169.144 892.134 171.204 892.134 Q176.528 892.134 179.63 894.564 Q182.732 896.972 182.732 901.092 Q182.732 903.962 181.089 905.953 Q179.445 907.921 176.413 908.685 Z" fill="#000000" fill-rule="nonzero" fill-opacity="1"></path><path clip-path="url(#clip910)" d="M50.098 1193.23 L28.5182 1193.23 L28.5182 1187.38 L49.8752 1187.38 Q54.9359 1187.38 57.4822 1185.4 Q59.9967 1183.43 59.9967 1179.48 Q59.9967 1174.74 56.9729 1172 Q53.9492 1169.23 48.7294 1169.23 L28.5182 1169.23 L28.5182 1163.38 L64.1662 1163.38 L64.1662 1169.23 L58.6917 1169.23 Q61.9382 1171.37 63.5296 1174.2 Q65.0892 1177 65.0892 1180.72 Q65.0892 1186.87 61.2698 1190.05 Q57.4504 1193.23 50.098 1193.23 M27.6589 1178.5 L27.6589 1178.5 Z" fill="#000000" fill-rule="nonzero" fill-opacity="1"></path><path clip-path="url(#clip910)" d="M58.7553 1149.37 L58.7553 1138.87 L22.5026 1138.87 L24.7943 1150.3 L18.9378 1150.3 L16.6462 1138.93 L16.6462 1132.5 L58.7553 1132.5 L58.7553 1122 L64.1662 1122 L64.1662 1149.37 L58.7553 1149.37 Z" fill="#000000" fill-rule="nonzero" fill-opacity="1"></path><path clip-path="url(#clip910)" d="M67.4764 1095.01 Q73.8421 1097.49 75.7836 1099.85 Q77.7251 1102.2 77.7251 1106.15 L77.7251 1110.83 L72.8236 1110.83 L72.8236 1107.39 Q72.8236 1104.97 71.6777 1103.64 Q70.5319 1102.3 66.2669 1100.68 L63.5933 1099.63 L28.5182 1114.04 L28.5182 1107.84 L56.4 1096.7 L28.5182 1085.56 L28.5182 1079.35 L67.4764 1095.01 Z" fill="#000000" fill-rule="nonzero" fill-opacity="1"></path><polyline clip-path="url(#clip913)" style="stroke:#009af9; stroke-linecap:round; stroke-linejoin:round; stroke-width:8; stroke-opacity:1; fill:none" points="279.916,1309.6 283.276,1308.16 286.636,1307.02 289.995,1306.44 293.355,1306.55 296.715,1307.33 300.074,1308.62 303.434,1310.13 306.794,1311.53 310.154,1312.52 313.513,1312.88 316.873,1312.52 320.233,1311.52 323.592,1310.09 326.952,1308.54 330.312,1307.21 333.672,1306.4 337.031,1306.29 340.391,1306.9 343.751,1308.11 347.11,1309.65 350.47,1311.2 353.83,1312.4 357.189,1313 360.549,1312.86 363.909,1312 367.269,1310.61 370.628,1308.98 373.988,1307.48 377.348,1306.44 380.707,1306.08 384.067,1306.49 387.427,1307.59 390.787,1309.14 394.146,1310.8 397.506,1312.21 400.866,1313.06 404.225,1313.16 407.585,1312.47 410.945,1311.16 414.305,1309.49 417.664,1307.83 421.024,1306.55 424.384,1305.93 427.743,1306.11 431.103,1307.06 434.463,1308.57 437.822,1310.33 441.182,1311.93 444.542,1313.04 447.902,1313.4 451.261,1312.93 454.621,1311.73 457.981,1310.04 461.34,1308.25 464.7,1306.74 468.06,1305.84 471.42,1305.77 474.779,1306.53 478.139,1307.97 481.499,1309.79 484.858,1311.58 488.218,1312.95 491.578,1313.59 494.938,1313.37 498.297,1312.31 501.657,1310.66 505.017,1308.75 508.376,1307.02 511.736,1305.84 515.096,1305.47 518.456,1306.01 521.815,1307.34 525.175,1309.18 528.535,1311.13 531.894,1312.76 535.254,1313.71 538.614,1313.77 541.973,1312.91 545.333,1311.31 548.693,1309.33 552.053,1307.39 555.412,1305.91 558.772,1305.23 562.132,1305.51 565.491,1306.69 568.851,1308.52 572.211,1310.6 575.571,1312.48 578.93,1313.75 582.29,1314.12 585.65,1313.5 589.009,1312.02 592.369,1309.99 595.729,1307.85 599.089,1306.08 602.448,1305.07 605.808,1305.04 609.168,1306.01 612.527,1307.79 615.887,1309.98 619.247,1312.1 622.606,1313.7 625.966,1314.42 629.326,1314.08 632.686,1312.76 636.045,1310.72 639.405,1308.42 642.765,1306.36 646.124,1304.98 649.484,1304.61 652.844,1305.33 656.204,1307 659.563,1309.25 662.923,1311.61 666.283,1313.55 669.642,1314.65 673.002,1314.64 676.362,1313.53 679.722,1311.54 683.081,1309.1 686.441,1306.75 689.801,1304.99 693.16,1304.23 696.52,1304.64 699.88,1306.15 703.24,1308.43 706.599,1311 709.959,1313.29 713.319,1314.79 716.678,1315.17 720.038,1314.33 723.398,1312.44 726.757,1309.9 730.117,1307.26 733.477,1305.11 736.837,1303.92 740.196,1303.96 743.556,1305.25 746.916,1307.51 750.275,1310.26 753.635,1312.89 756.995,1314.84 760.355,1315.66 763.714,1315.16 767.074,1313.42 770.434,1310.83 773.793,1307.92 777.153,1305.35 780.513,1303.68 783.873,1303.3 787.232,1304.29 790.592,1306.47 793.952,1309.36 797.311,1312.35 800.671,1314.78 804.031,1316.1 807.39,1316 810.75,1314.5 814.11,1311.89 817.47,1308.75 820.829,1305.74 824.189,1303.55 827.549,1302.65 830.908,1303.27 834.268,1305.3 837.628,1308.3 840.988,1311.64 844.347,1314.58 847.707,1316.46 851.067,1316.87 854.426,1315.67 857.786,1313.13 861.146,1309.76 864.506,1306.3 867.865,1303.52 871.225,1302.03 874.585,1302.19 877.944,1303.98 881.304,1307.05 884.664,1310.72 888.024,1314.21 891.383,1316.75 894.743,1317.75 898.103,1316.97 901.462,1314.55 904.822,1311 908.182,1307.07 911.541,1303.64 914.901,1301.45 918.261,1301.03 921.621,1302.49 924.98,1305.54 928.34,1309.55 931.7,1313.65 935.059,1316.93 938.419,1318.66 941.779,1318.42 945.139,1316.22 948.498,1312.52 951.858,1308.11 955.218,1303.93 958.577,1300.92 961.937,1299.76 965.297,1300.76 968.657,1303.73 972.016,1308.06 975.376,1312.83 978.736,1316.99 982.095,1319.6 985.455,1320.06 988.815,1318.22 992.175,1314.43 995.534,1309.49 998.894,1304.45 1002.25,1300.43 1005.61,1298.35 1008.97,1298.71 1012.33,1301.48 1015.69,1306.13 1019.05,1311.66 1022.41,1316.87 1025.77,1320.61 1029.13,1322.01 1032.49,1320.69 1035.85,1316.88 1039.21,1311.36 1042.57,1305.29 1045.93,1300.01 1049.29,1296.7 1052.65,1296.16 1056.01,1298.59 1059.37,1303.54 1062.73,1309.98 1066.09,1316.53 1069.45,1321.74 1072.81,1324.43 1076.17,1323.9 1079.53,1320.18 1082.89,1313.99 1086.25,1306.61 1089.61,1299.64 1092.97,1294.65 1096.33,1292.81 1099.69,1294.64 1103.04,1299.87 1106.4,1307.47 1109.76,1315.83 1113.12,1323.12 1116.48,1327.69 1119.84,1328.41 1123.2,1324.96 1126.56,1317.93 1129.92,1308.74 1133.28,1299.34 1136.64,1291.81 1140,1287.92 1143.36,1288.69 1146.72,1294.18 1150.08,1303.41 1153.44,1314.48 1156.8,1325.04 1160.16,1332.69 1163.52,1335.58 1166.88,1332.78 1170.24,1324.61 1173.6,1312.57 1176.96,1299.12 1180.32,1287.18 1183.68,1279.52 1187.04,1278.14 1190.4,1283.79 1193.76,1295.7 1197.12,1311.67 1200.48,1328.41 1203.84,1342.24 1207.2,1349.81 1210.56,1348.86 1213.92,1338.84 1217.28,1321.14 1220.63,1298.96 1223.99,1276.85 1227.35,1259.77 1230.71,1252.19 1234.07,1256.99 1237.43,1274.76 1240.79,1303.34 1244.15,1337.97 1247.51,1371.89 1250.87,1397.34 1254.23,1406.94 1257.59,1395.01 1260.95,1358.73 1264.31,1298.89 1267.67,1220.05 1271.03,1130.12 1274.39,1039.26 1277.75,958.491 1281.11,898.008 1284.47,865.643 1287.83,865.643 1291.19,898.008 1294.55,958.491 1297.91,1039.26 1301.27,1130.12 1304.63,1220.05 1307.99,1298.89 1311.35,1358.73 1314.71,1395.01 1318.07,1406.94 1321.43,1397.34 1324.79,1371.89 1328.15,1337.97 1331.51,1303.34 1334.86,1274.76 1338.22,1256.99 1341.58,1252.19 1344.94,1259.77 1348.3,1276.85 1351.66,1298.96 1355.02,1321.14 1358.38,1338.84 1361.74,1348.86 1365.1,1349.81 1368.46,1342.24 1371.82,1328.41 1375.18,1311.67 1378.54,1295.7 1381.9,1283.79 1385.26,1278.14 1388.62,1279.52 1391.98,1287.18 1395.34,1299.12 1398.7,1312.57 1402.06,1324.61 1405.42,1332.78 1408.78,1335.58 1412.14,1332.69 1415.5,1325.04 1418.86,1314.48 1422.22,1303.41 1425.58,1294.18 1428.94,1288.69 1432.3,1287.92 1435.66,1291.81 1439.02,1299.34 1442.38,1308.74 1445.74,1317.93 1449.09,1324.96 1452.45,1328.41 1455.81,1327.69 1459.17,1323.12 1462.53,1315.83 1465.89,1307.47 1469.25,1299.87 1472.61,1294.64 1475.97,1292.81 1479.33,1294.65 1482.69,1299.64 1486.05,1306.61 1489.41,1313.99 1492.77,1320.18 1496.13,1323.9 1499.49,1324.43 1502.85,1321.74 1506.21,1316.53 1509.57,1309.98 1512.93,1303.54 1516.29,1298.59 1519.65,1296.16 1523.01,1296.7 1526.37,1300.01 1529.73,1305.29 1533.09,1311.36 1536.45,1316.88 1539.81,1320.69 1543.17,1322.01 1546.53,1320.61 1549.89,1316.87 1553.25,1311.66 1556.61,1306.13 1559.97,1301.48 1563.33,1298.71 1566.68,1298.35 1570.04,1300.43 1573.4,1304.45 1576.76,1309.49 1580.12,1314.43 1583.48,1318.22 1586.84,1320.06 1590.2,1319.6 1593.56,1316.99 1596.92,1312.83 1600.28,1308.06 1603.64,1303.73 1607,1300.76 1610.36,1299.76 1613.72,1300.92 1617.08,1303.93 1620.44,1308.11 1623.8,1312.52 1627.16,1316.22 1630.52,1318.42 1633.88,1318.66 1637.24,1316.93 1640.6,1313.65 1643.96,1309.55 1647.32,1305.54 1650.68,1302.49 1654.04,1301.03 1657.4,1301.45 1660.76,1303.64 1664.12,1307.07 1667.48,1311 1670.84,1314.55 1674.2,1316.97 1677.56,1317.75 1680.91,1316.75 1684.27,1314.21 1687.63,1310.72 1690.99,1307.05 1694.35,1303.98 1697.71,1302.19 1701.07,1302.03 1704.43,1303.52 1707.79,1306.3 1711.15,1309.76 1714.51,1313.13 1717.87,1315.67 1721.23,1316.87 1724.59,1316.46 1727.95,1314.58 1731.31,1311.64 1734.67,1308.3 1738.03,1305.3 1741.39,1303.27 1744.75,1302.65 1748.11,1303.55 1751.47,1305.74 1754.83,1308.75 1758.19,1311.89 1761.55,1314.5 1764.91,1316 1768.27,1316.1 1771.63,1314.78 1774.99,1312.35 1778.35,1309.36 1781.71,1306.47 1785.07,1304.29 1788.43,1303.3 1791.79,1303.68 1795.14,1305.35 1798.5,1307.92 1801.86,1310.83 1805.22,1313.42 1808.58,1315.16 1811.94,1315.66 1815.3,1314.84 1818.66,1312.89 1822.02,1310.26 1825.38,1307.51 1828.74,1305.25 1832.1,1303.96 1835.46,1303.92 1838.82,1305.11 1842.18,1307.26 1845.54,1309.9 1848.9,1312.44 1852.26,1314.33 1855.62,1315.17 1858.98,1314.79 1862.34,1313.29 1865.7,1311 1869.06,1308.43 1872.42,1306.15 1875.78,1304.64 1879.14,1304.23 1882.5,1304.99 1885.86,1306.75 1889.22,1309.1 1892.58,1311.54 1895.94,1313.53 1899.3,1314.64 1902.66,1314.65 1906.02,1313.55 1909.38,1311.61 1912.73,1309.25 1916.09,1307 1919.45,1305.33 1922.81,1304.61 1926.17,1304.98 1929.53,1306.36 1932.89,1308.42 1936.25,1310.72 1939.61,1312.76 1942.97,1314.08 1946.33,1314.42 1949.69,1313.7 1953.05,1312.1 1956.41,1309.98 1959.77,1307.79 1963.13,1306.01 1966.49,1305.04 1969.85,1305.07 1973.21,1306.08 1976.57,1307.85 1979.93,1309.99 1983.29,1312.02 1986.65,1313.5 1990.01,1314.12 1993.37,1313.75 1996.73,1312.48 2000.09,1310.6 2003.45,1308.52 2006.81,1306.69 2010.17,1305.51 2013.53,1305.23 2016.89,1305.91 2020.25,1307.39 2023.61,1309.33 2026.96,1311.31 2030.32,1312.91 2033.68,1313.77 2037.04,1313.71 2040.4,1312.76 2043.76,1311.13 2047.12,1309.18 2050.48,1307.34 2053.84,1306.01 2057.2,1305.47 2060.56,1305.84 2063.92,1307.02 2067.28,1308.75 2070.64,1310.66 2074,1312.31 2077.36,1313.37 2080.72,1313.59 2084.08,1312.95 2087.44,1311.58 2090.8,1309.79 2094.16,1307.97 2097.52,1306.53 2100.88,1305.77 2104.24,1305.84 2107.6,1306.74 2110.96,1308.25 2114.32,1310.04 2117.68,1311.73 2121.04,1312.93 2124.4,1313.4 2127.76,1313.04 2131.12,1311.93 2134.48,1310.33 2137.84,1308.57 2141.2,1307.06 2144.55,1306.11 2147.91,1305.93 2151.27,1306.55 2154.63,1307.83 2157.99,1309.49 2161.35,1311.16 2164.71,1312.47 2168.07,1313.16 2171.43,1313.06 2174.79,1312.21 2178.15,1310.8 2181.51,1309.14 2184.87,1307.59 2188.23,1306.49 2191.59,1306.08 2194.95,1306.44 2198.31,1307.48 2201.67,1308.98 2205.03,1310.61 2208.39,1312 2211.75,1312.86 2215.11,1313 2218.47,1312.4 2221.83,1311.2 2225.19,1309.65 2228.55,1308.11 2231.91,1306.9 2235.27,1306.29 2238.63,1306.4 2241.99,1307.21 2245.35,1308.54 2248.71,1310.09 2252.07,1311.52 2255.43,1312.52 2258.78,1312.88 2262.14,1312.52 2265.5,1311.53 2268.86,1310.13 2272.22,1308.62 2275.58,1307.33 2278.94,1306.55 2282.3,1306.44 2285.66,1307.02 2289.02,1308.16 2292.38,1309.6 "></polyline>
</svg>